<svg viewBox="0 0 20 20" xmlns="http://www.w3.org/2000/svg">
  <path d="M19.785 10.225C19.785 9.56671 19.7267 8.94171 19.6267 8.33337H10.21V12.0917H15.6017C15.36 13.325 14.6517 14.3667 13.6017 15.075V17.575H16.8183C18.7017 15.8334 19.785 13.2667 19.785 10.225Z" fill="#4285F4"/>
  <path d="M10.21 20C12.91 20 15.1683 19.1 16.8183 17.575L13.6017 15.075C12.7017 15.675 11.56 16.0417 10.21 16.0417C7.60167 16.0417 5.39334 14.2833 4.60167 11.9083H1.285V14.4833C2.92667 17.75 6.30167 20 10.21 20Z" fill="#34A853"/>
  <path d="M4.60167 11.9083C4.39334 11.3083 4.28501 10.6666 4.28501 9.99993C4.28501 9.33327 4.40167 8.6916 4.60167 8.0916V5.5166H1.28501C0.601673 6.8666 0.210007 8.38327 0.210007 9.99993C0.210007 11.6166 0.601673 13.1333 1.28501 14.4833L4.60167 11.9083Z" fill="#FBBC05"/>
  <path d="M10.21 3.95833C11.685 3.95833 13.0017 4.46667 14.0433 5.45834L16.8933 2.60833C15.1683 0.991667 12.91 0 10.21 0C6.30167 0 2.92667 2.25 1.285 5.51667L4.60167 8.09167C5.39334 5.71667 7.60167 3.95833 10.21 3.95833Z" fill="#EA4335"/>
</svg>
