<svg viewBox="0 0 20 20" xmlns="http://www.w3.org/2000/svg">
  <path fill-rule="evenodd" clip-rule="evenodd" d="M10 0.5C4.47727 0.5 0 4.02014 0 8.36247C0 11.0622 1.72727 13.4444 4.36818 14.8601L3.25909 18.9846C3.2374 19.0653 3.24095 19.1506 3.26925 19.2292C3.29756 19.3078 3.34927 19.3759 3.41745 19.4243C3.48563 19.4727 3.56701 19.4991 3.65066 19.5C3.73432 19.5009 3.81625 19.4762 3.88545 19.4293L8.74818 16.1623C9.15818 16.2023 9.57545 16.2258 10 16.2258C15.5227 16.2258 20 12.7048 20 8.36247C20 4.02014 15.5227 0.5 10 0.5Z"/>
</svg>
