<svg xmlns="http://www.w3.org/2000/svg" width="20.172" height="18.697" viewBox="0 0 20.172 18.697">
  <path id="패스_693" data-name="패스 693" d="M438.461,886.2a1.466,1.466,0,0,1-.829-.257,26.932,26.932,0,0,1-6.056-5.2,10.685,10.685,0,0,1-2.7-7.05,5.2,5.2,0,0,1,5.119-5.191,5.6,5.6,0,0,1,4.258,2.1.277.277,0,0,0,.094.069.277.277,0,0,0,.229,0,.277.277,0,0,0,.094-.069,5.6,5.6,0,0,1,4.258-2.1,5.2,5.2,0,0,1,5.119,5.191,10.693,10.693,0,0,1-2.7,7.052,26.961,26.961,0,0,1-6.056,5.2A1.473,1.473,0,0,1,438.461,886.2Z" transform="translate(-428.375 -868)" fill="red" stroke="#707070" stroke-width="1"/>
</svg>
