<svg viewBox="0 0 143 43" fill="none" xmlns="http://www.w3.org/2000/svg">
  <g clip-path="url(#clip0_107_14)">
  <path d="M36.599 12.989H7.69897L3.30798 5.578L0.000976562 0H21.772C25.3979 -9.02529e-06 28.9005 1.31718 31.6279 3.70649C34.3553 6.09581 36.1219 9.39456 36.599 12.989Z" fill="currentColor"/>
  <path d="M36.599 16.9209C36.1215 20.5155 34.3545 23.8143 31.6267 26.2036C28.899 28.5929 25.3962 29.91 21.77 29.9099H15.196L6.847 43.9999L0 29.9099L3.30701 24.3319L7.69801 16.9209H36.599Z" fill="currentColor"/>
  <path d="M48.3457 7.70361H51.6904V24H48.3457V7.70361ZM43.5117 6.25098H56.5244V9.47363H43.5117V6.25098ZM59.3198 13.6362H65.4966C65.8384 13.6362 66.1395 13.5508 66.3999 13.3799C66.6603 13.209 66.8597 12.9648 66.998 12.6475C67.1445 12.3301 67.2218 11.9639 67.23 11.5488C67.23 11.1338 67.1567 10.7676 67.0103 10.4502C66.8719 10.1328 66.6725 9.88867 66.4121 9.71777C66.1517 9.54688 65.8465 9.46143 65.4966 9.46143H59.3198V6.23877H65.7651C66.7417 6.23877 67.6003 6.4585 68.3408 6.89795C69.0814 7.3374 69.6551 7.95996 70.062 8.76562C70.4689 9.56315 70.6724 10.4909 70.6724 11.5488C70.6724 12.6068 70.4689 13.5386 70.062 14.3442C69.6551 15.1418 69.0773 15.7603 68.3286 16.1997C67.5881 16.6392 66.7336 16.8589 65.7651 16.8589H59.3198V13.6362ZM57.9893 6.23877H61.334V24H57.9893V6.23877ZM63.0552 16.3096L66.6318 15.748L71.417 24H67.3643L63.0552 16.3096ZM77.5205 24H74.0537V6.25098H77.5205V24ZM82.7085 13.8926H88.3848C88.7835 13.8926 89.1335 13.8031 89.4346 13.624C89.7438 13.4368 89.9839 13.1764 90.1548 12.8428C90.3257 12.5091 90.4111 12.1266 90.4111 11.6953C90.4111 11.2559 90.3257 10.8693 90.1548 10.5356C89.992 10.1938 89.756 9.93343 89.4468 9.75439C89.1457 9.56722 88.7917 9.47363 88.3848 9.47363H82.7085V6.25098H88.2993C89.4061 6.25098 90.3786 6.47884 91.2168 6.93457C92.0632 7.38216 92.7183 8.01693 93.1821 8.83887C93.646 9.66081 93.8779 10.613 93.8779 11.6953C93.8779 12.7777 93.646 13.7298 93.1821 14.5518C92.7183 15.3656 92.0632 15.9963 91.2168 16.4438C90.3786 16.8914 89.4061 17.1152 88.2993 17.1152H82.7085V13.8926ZM81.1826 6.25098H84.5273V24H81.1826V6.25098ZM102.63 24.1831C101.345 24.1831 100.209 23.9146 99.2246 23.3774C98.248 22.8322 97.4912 22.0672 96.9541 21.0825C96.417 20.0897 96.1484 18.9422 96.1484 17.6401V12.6108C96.1484 11.3088 96.417 10.1654 96.9541 9.18066C97.4912 8.18783 98.248 7.42285 99.2246 6.88574C100.209 6.34049 101.345 6.06787 102.63 6.06787C103.916 6.06787 105.047 6.34049 106.024 6.88574C107.009 7.42285 107.77 8.18783 108.307 9.18066C108.844 10.1654 109.112 11.3088 109.112 12.6108V17.6401C109.112 18.9422 108.844 20.0897 108.307 21.0825C107.77 22.0672 107.009 22.8322 106.024 23.3774C105.047 23.9146 103.916 24.1831 102.63 24.1831ZM102.63 20.8384C103.233 20.8384 103.762 20.7122 104.217 20.46C104.673 20.1995 105.023 19.8333 105.267 19.3613C105.519 18.8893 105.646 18.3441 105.646 17.7256V12.5254C105.646 11.9069 105.519 11.3617 105.267 10.8896C105.023 10.4176 104.673 10.0555 104.217 9.80322C103.762 9.54281 103.233 9.4126 102.63 9.4126C102.028 9.4126 101.499 9.54281 101.043 9.80322C100.588 10.0555 100.234 10.4176 99.9814 10.8896C99.7373 11.3617 99.6152 11.9069 99.6152 12.5254V17.7256C99.6152 18.3441 99.7373 18.8893 99.9814 19.3613C100.234 19.8333 100.588 20.1995 101.043 20.46C101.499 20.7122 102.028 20.8384 102.63 20.8384ZM112.652 6.25098H116.742L123.346 19.8496L123.053 20.167V6.25098H126.251V23.9878H122.137L115.558 10.5967L115.851 10.2793V23.9878H112.652V6.25098ZM142.779 14.0757V17.5425C142.779 18.8608 142.511 20.0246 141.974 21.0337C141.445 22.0347 140.692 22.8118 139.715 23.3652C138.739 23.9105 137.608 24.1831 136.322 24.1831C135.028 24.1831 133.884 23.9268 132.892 23.4141C131.907 22.8932 131.142 22.1608 130.597 21.2168C130.06 20.2728 129.791 19.1782 129.791 17.9331V12.6963C129.791 11.3779 130.056 10.2183 130.584 9.21729C131.122 8.21631 131.878 7.4432 132.855 6.89795C133.832 6.34456 134.963 6.06787 136.249 6.06787C137.306 6.06787 138.283 6.2876 139.178 6.72705C140.073 7.15837 140.818 7.77279 141.412 8.57031C142.014 9.36784 142.421 10.2915 142.633 11.3413H139.02C138.897 10.967 138.694 10.6455 138.409 10.377C138.132 10.1003 137.803 9.89274 137.42 9.75439C137.046 9.60791 136.655 9.53467 136.249 9.53467C135.654 9.53467 135.13 9.66488 134.674 9.92529C134.226 10.1857 133.876 10.556 133.624 11.0361C133.38 11.5163 133.258 12.0697 133.258 12.6963V17.9331C133.258 18.4865 133.384 18.9748 133.636 19.3979C133.889 19.8211 134.247 20.1466 134.71 20.3745C135.174 20.6024 135.711 20.7163 136.322 20.7163C136.924 20.7163 137.449 20.5942 137.896 20.3501C138.352 20.0978 138.702 19.7357 138.946 19.2637C139.19 18.7917 139.312 18.2342 139.312 17.5913V17.2983H136.627V14.0757H142.779Z" fill="currentColor"/>
  <path d="M61.0469 28.9583H61.7441V29.6555H61.0469V28.9583ZM61.0469 30.3801H61.7441V33.928H61.0469V30.3801ZM62.8037 30.3801H63.501V33.928H62.8037V30.3801ZM64.957 31.7781C64.957 31.5274 64.8921 31.3337 64.7622 31.197C64.6323 31.0603 64.45 30.9919 64.2153 30.9919C63.9875 30.9919 63.8109 31.0523 63.6855 31.1731C63.5625 31.2939 63.501 31.4636 63.501 31.6824L63.4292 30.9988C63.5386 30.7846 63.681 30.6194 63.8564 30.5032C64.0342 30.387 64.2301 30.3289 64.4443 30.3289C64.8294 30.3289 65.1268 30.4553 65.3364 30.7083C65.5483 30.9589 65.6543 31.3144 65.6543 31.7747V33.928H64.957V31.7781ZM68.7305 28.9583H69.4277V33.928H68.7305V28.9583ZM67.8384 33.9895C67.5786 33.9895 67.3564 33.9337 67.1719 33.822C66.9896 33.7081 66.8506 33.5429 66.7549 33.3264C66.6592 33.1099 66.6113 32.8502 66.6113 32.5471V31.7644C66.6113 31.4591 66.658 31.1982 66.7515 30.9817C66.8449 30.7652 66.9805 30.6012 67.1582 30.4895C67.3382 30.3756 67.5535 30.3186 67.8042 30.3186C68.0138 30.3186 68.2052 30.3733 68.3784 30.4827C68.5539 30.592 68.6951 30.7458 68.8022 30.9441L68.7305 31.6687C68.7305 31.5183 68.7031 31.3896 68.6484 31.2825C68.5938 31.1754 68.514 31.0945 68.4092 31.0398C68.3066 30.9828 68.1813 30.9543 68.0332 30.9543C67.8031 30.9543 67.6242 31.0261 67.4966 31.1697C67.3713 31.3132 67.3086 31.5149 67.3086 31.7747V32.5471C67.3086 32.8046 67.3713 33.004 67.4966 33.1453C67.6242 33.2843 67.8031 33.3538 68.0332 33.3538C68.1813 33.3538 68.3066 33.3253 68.4092 33.2683C68.514 33.2091 68.5938 33.1248 68.6484 33.0154C68.7031 32.906 68.7305 32.775 68.7305 32.6223L68.7783 33.3708C68.7077 33.5463 68.5915 33.6933 68.4297 33.8118C68.2702 33.9303 68.0731 33.9895 67.8384 33.9895ZM72.627 30.3801H73.3208V33.928H72.627V30.3801ZM71.1846 32.5369C71.1846 32.7852 71.2472 32.9778 71.3726 33.1145C71.5002 33.2489 71.679 33.3162 71.9092 33.3162C72.137 33.3162 72.3136 33.2558 72.439 33.135C72.5643 33.0142 72.627 32.8422 72.627 32.6189L72.6748 33.3606C72.6019 33.5361 72.4834 33.683 72.3193 33.8015C72.1553 33.92 71.9536 33.9792 71.7144 33.9792C71.3224 33.9792 71.0194 33.8539 70.8052 33.6033C70.5933 33.3503 70.4873 32.9949 70.4873 32.5369V30.3801H71.1846V32.5369ZM75.0811 33.012C75.0811 33.0986 75.0993 33.1658 75.1357 33.2136C75.1745 33.2592 75.228 33.282 75.2964 33.282H75.6245V33.9451H75.2144C74.95 33.9451 74.745 33.863 74.5991 33.699C74.4556 33.5349 74.3838 33.3036 74.3838 33.0051V28.9583H75.0811V33.012ZM77.6035 35.3704C77.3369 35.3704 77.0977 35.3202 76.8857 35.22C76.6761 35.122 76.5132 34.983 76.397 34.803L76.8687 34.3757C76.9598 34.5011 77.068 34.5979 77.1934 34.6663C77.321 34.7346 77.4543 34.7688 77.5933 34.7688C77.8599 34.7688 78.0661 34.6947 78.2119 34.5466C78.3577 34.4008 78.4307 34.1934 78.4307 33.9246V30.3801H79.1279V33.822C79.1279 34.1479 79.0675 34.427 78.9468 34.6594C78.8283 34.8918 78.6551 35.0684 78.4272 35.1892C78.1994 35.31 77.9248 35.3704 77.6035 35.3704ZM77.5386 33.9895C77.2788 33.9895 77.0566 33.9337 76.8721 33.822C76.6898 33.7081 76.5508 33.5429 76.4551 33.3264C76.3594 33.1099 76.3115 32.8502 76.3115 32.5471V31.7644C76.3115 31.4591 76.3582 31.1982 76.4517 30.9817C76.5451 30.7652 76.6807 30.6012 76.8584 30.4895C77.0384 30.3756 77.2537 30.3186 77.5044 30.3186C77.714 30.3186 77.9054 30.3733 78.0786 30.4827C78.2541 30.592 78.3953 30.7458 78.5024 30.9441L78.4307 31.6687C78.4307 31.5183 78.4033 31.3896 78.3486 31.2825C78.2939 31.1754 78.2142 31.0945 78.1094 31.0398C78.0068 30.9828 77.8815 30.9543 77.7334 30.9543C77.5033 30.9543 77.3244 31.0261 77.1968 31.1697C77.0715 31.3132 77.0088 31.5149 77.0088 31.7747V32.5471C77.0088 32.8046 77.0715 33.004 77.1968 33.1453C77.3244 33.2843 77.5033 33.3538 77.7334 33.3538C77.8815 33.3538 78.0068 33.3253 78.1094 33.2683C78.2142 33.2091 78.2939 33.1248 78.3486 33.0154C78.4033 32.906 78.4307 32.775 78.4307 32.6223L78.4785 33.3708C78.4079 33.5463 78.2917 33.6933 78.1299 33.8118C77.9704 33.9303 77.7733 33.9895 77.5386 33.9895ZM81.6401 33.9792C81.312 33.9792 81.0317 33.9177 80.7993 33.7947C80.5669 33.6716 80.3892 33.4916 80.2661 33.2546C80.1453 33.0154 80.085 32.7271 80.085 32.3899V31.99C80.085 31.6391 80.1431 31.3394 80.2593 31.0911C80.3778 30.8427 80.5487 30.6536 80.772 30.5237C80.9953 30.3938 81.2642 30.3289 81.5786 30.3289C81.8748 30.3289 82.1278 30.4029 82.3374 30.551C82.547 30.6991 82.7065 30.9133 82.8159 31.1936C82.9276 31.4739 82.9834 31.81 82.9834 32.2019V32.4343H80.5908V31.8738H82.3203C82.2998 31.5844 82.2246 31.3599 82.0947 31.2004C81.9671 31.0387 81.7951 30.9578 81.5786 30.9578C81.3143 30.9578 81.1092 31.0444 80.9634 31.2175C80.8198 31.3907 80.748 31.6357 80.748 31.9524V32.4036C80.748 32.6975 80.8255 32.9231 80.9805 33.0803C81.1354 33.2375 81.3553 33.3162 81.6401 33.3162C81.7814 33.3162 81.9215 33.2877 82.0605 33.2307C82.1995 33.1737 82.3237 33.094 82.4331 32.9915L82.8911 33.4495C82.7157 33.6181 82.5186 33.7491 82.2998 33.8425C82.0811 33.9337 81.8612 33.9792 81.6401 33.9792ZM85.1367 28.9583H85.834V29.6555H85.1367V28.9583ZM85.1367 30.3801H85.834V33.928H85.1367V30.3801ZM86.8936 30.3801H87.5908V33.928H86.8936V30.3801ZM89.0469 31.7781C89.0469 31.5274 88.9819 31.3337 88.8521 31.197C88.7222 31.0603 88.5399 30.9919 88.3052 30.9919C88.0773 30.9919 87.9007 31.0523 87.7754 31.1731C87.6523 31.2939 87.5908 31.4636 87.5908 31.6824L87.519 30.9988C87.6284 30.7846 87.7708 30.6194 87.9463 30.5032C88.124 30.387 88.32 30.3289 88.5342 30.3289C88.9193 30.3289 89.2166 30.4553 89.4263 30.7083C89.6382 30.9589 89.7441 31.3144 89.7441 31.7747V33.928H89.0469V31.7781ZM94.0029 31.679C94.0029 31.4465 93.9403 31.2665 93.8149 31.1389C93.6919 31.009 93.5164 30.9441 93.2886 30.9441C93.1473 30.9441 93.0083 30.9657 92.8716 31.009C92.7371 31.0523 92.6175 31.1127 92.5127 31.1902L92.0034 30.8416C92.1379 30.6798 92.3145 30.5544 92.5332 30.4656C92.7542 30.3744 92.9992 30.3289 93.2681 30.3289C93.562 30.3289 93.8138 30.3813 94.0234 30.4861C94.2331 30.5886 94.3926 30.739 94.502 30.9373C94.6113 31.1332 94.666 31.3702 94.666 31.6482V33.928H94.0029V31.679ZM93.1348 33.9792C92.6973 33.9792 92.3703 33.8892 92.1538 33.7092C91.9373 33.5269 91.8291 33.2512 91.8291 32.8821C91.8291 32.5312 91.9282 32.268 92.1265 32.0925C92.3247 31.9171 92.6243 31.8293 93.0254 31.8293H94.0337L94.0815 32.3899H93.0288C92.8465 32.3899 92.7098 32.4309 92.6187 32.5129C92.5298 32.5927 92.4854 32.7157 92.4854 32.8821C92.4854 33.0621 92.5446 33.1954 92.6631 33.282C92.7839 33.3686 92.9661 33.4119 93.21 33.4119C93.4766 33.4119 93.6748 33.3834 93.8047 33.3264C93.9368 33.2694 94.0029 33.1806 94.0029 33.0598L94.0747 33.5588C94.0132 33.6545 93.9368 33.7332 93.8457 33.7947C93.7568 33.8562 93.6532 33.9018 93.5347 33.9314C93.4162 33.9633 93.2829 33.9792 93.1348 33.9792ZM96.4434 34.7073H96.833C96.8968 34.7073 96.9458 34.6833 96.98 34.6355C97.0164 34.5899 97.0347 34.5238 97.0347 34.4373V30.3801H97.7319V34.4304C97.7319 34.7289 97.659 34.9602 97.5132 35.1243C97.3696 35.2883 97.1657 35.3704 96.9014 35.3704H96.4434V34.7073ZM97.0278 28.9583H97.7388V29.6555H97.0278V28.9583ZM100.162 33.9792C99.8545 33.9792 99.5913 33.9189 99.3726 33.7981C99.1538 33.6773 98.9863 33.5019 98.8701 33.2717C98.7562 33.0393 98.6992 32.7602 98.6992 32.4343V31.8567C98.6992 31.5354 98.7562 31.2608 98.8701 31.033C98.9863 30.8028 99.1538 30.6285 99.3726 30.51C99.5913 30.3892 99.8545 30.3289 100.162 30.3289C100.47 30.3289 100.733 30.3892 100.952 30.51C101.17 30.6285 101.337 30.8028 101.451 31.033C101.567 31.2608 101.625 31.5354 101.625 31.8567V32.4446C101.625 32.7681 101.567 33.045 101.451 33.2751C101.337 33.503 101.17 33.6773 100.952 33.7981C100.733 33.9189 100.47 33.9792 100.162 33.9792ZM100.162 33.3162C100.406 33.3162 100.594 33.2398 100.726 33.0872C100.861 32.9345 100.928 32.7203 100.928 32.4446V31.8567C100.928 31.581 100.861 31.3679 100.726 31.2175C100.594 31.0671 100.406 30.9919 100.162 30.9919C99.9183 30.9919 99.7292 31.0671 99.5947 31.2175C99.4626 31.3679 99.3965 31.581 99.3965 31.8567V32.4446C99.3965 32.7203 99.4626 32.9345 99.5947 33.0872C99.7292 33.2398 99.9183 33.3162 100.162 33.3162ZM104.667 30.3801H105.361V33.928H104.667V30.3801ZM103.225 32.5369C103.225 32.7852 103.287 32.9778 103.413 33.1145C103.54 33.2489 103.719 33.3162 103.949 33.3162C104.177 33.3162 104.354 33.2558 104.479 33.135C104.604 33.0142 104.667 32.8422 104.667 32.6189L104.715 33.3606C104.642 33.5361 104.523 33.683 104.359 33.8015C104.195 33.92 103.994 33.9792 103.754 33.9792C103.362 33.9792 103.059 33.8539 102.845 33.6033C102.633 33.3503 102.527 32.9949 102.527 32.5369V30.3801H103.225V32.5369ZM106.424 30.3801H107.121V33.928H106.424V30.3801ZM108.375 31.2209C108.314 31.1458 108.236 31.0888 108.143 31.05C108.05 31.0113 107.941 30.9919 107.818 30.9919C107.597 30.9919 107.425 31.0535 107.302 31.1765C107.181 31.2973 107.121 31.4659 107.121 31.6824L107.049 30.9988C107.159 30.7869 107.3 30.6228 107.473 30.5066C107.646 30.3881 107.838 30.3289 108.047 30.3289C108.209 30.3289 108.355 30.3528 108.485 30.4006C108.617 30.4462 108.732 30.5146 108.83 30.6057L108.375 31.2209ZM109.411 30.3801H110.108V33.928H109.411V30.3801ZM111.564 31.7781C111.564 31.5274 111.5 31.3337 111.37 31.197C111.24 31.0603 111.057 30.9919 110.823 30.9919C110.595 30.9919 110.418 31.0523 110.293 31.1731C110.17 31.2939 110.108 31.4636 110.108 31.6824L110.037 30.9988C110.146 30.7846 110.288 30.6194 110.464 30.5032C110.642 30.387 110.838 30.3289 111.052 30.3289C111.437 30.3289 111.734 30.4553 111.944 30.7083C112.156 30.9589 112.262 31.3144 112.262 31.7747V33.928H111.564V31.7781ZM114.774 33.9792C114.446 33.9792 114.166 33.9177 113.933 33.7947C113.701 33.6716 113.523 33.4916 113.4 33.2546C113.279 33.0154 113.219 32.7271 113.219 32.3899V31.99C113.219 31.6391 113.277 31.3394 113.393 31.0911C113.512 30.8427 113.682 30.6536 113.906 30.5237C114.129 30.3938 114.398 30.3289 114.712 30.3289C115.009 30.3289 115.262 30.4029 115.471 30.551C115.681 30.6991 115.84 30.9133 115.95 31.1936C116.061 31.4739 116.117 31.81 116.117 32.2019V32.4343H113.725V31.8738H115.454C115.434 31.5844 115.358 31.3599 115.229 31.2004C115.101 31.0387 114.929 30.9578 114.712 30.9578C114.448 30.9578 114.243 31.0444 114.097 31.2175C113.954 31.3907 113.882 31.6357 113.882 31.9524V32.4036C113.882 32.6975 113.959 32.9231 114.114 33.0803C114.269 33.2375 114.489 33.3162 114.774 33.3162C114.915 33.3162 115.055 33.2877 115.194 33.2307C115.333 33.1737 115.458 33.094 115.567 32.9915L116.025 33.4495C115.849 33.6181 115.652 33.7491 115.434 33.8425C115.215 33.9337 114.995 33.9792 114.774 33.9792ZM119.771 30.3801L118.26 34.7585C118.206 34.9203 118.134 35.0479 118.045 35.1414C117.956 35.2371 117.847 35.3054 117.717 35.3464C117.587 35.3875 117.427 35.408 117.238 35.408H117.098V34.738H117.238C117.368 34.738 117.471 34.7118 117.546 34.6594C117.623 34.607 117.691 34.517 117.748 34.3894L119.06 30.3801H119.771ZM116.63 30.3801H117.341L118.431 33.4631L118.045 34.2185L116.63 30.3801Z" fill="currentColor"/>
  </g>
</svg>
